<svg width="88" height="19" viewBox="0 0 88 19" fill="none" xmlns="http://www.w3.org/2000/svg">
<path d="M35.8273 18.2785H31.9025V16.8582C31.1937 18.1381 29.5617 18.7298 28.0238 18.7298C23.8627 18.7298 21.4258 15.462 21.4258 11.6947C21.4258 7.38371 24.5235 4.68359 28.0238 4.68359C30.1764 4.68359 31.3819 5.72673 31.9025 6.53115V5.13295H35.8273V18.2805V18.2785ZM25.3526 11.7649C25.3526 12.9725 26.2516 15.0568 28.6165 15.0568C30.0122 15.0568 30.8633 14.3928 31.3599 13.5884C31.6903 13.0668 31.8565 12.4991 31.9045 11.9073C31.9526 11.3155 31.8344 10.7238 31.5741 10.1781C31.1476 9.27741 30.2505 8.35463 28.5945 8.35463C26.3478 8.35463 25.3546 10.2503 25.3546 11.7428V11.7669L25.3526 11.7649Z" fill="white"/>
<path d="M37.7441 5.133H41.4086V6.5312C41.4086 6.5312 41.6449 6.05778 42.2116 5.60642C42.7783 5.133 43.7014 4.68164 45.0731 4.68164C45.9721 4.68164 47.1075 4.91835 48.0767 5.93742C48.3611 6.22227 48.6214 6.57734 48.8577 7.02669C49.118 6.62348 49.4243 6.22227 49.8028 5.88927C50.5838 5.17914 51.647 4.68164 53.0187 4.68164C53.9418 4.68164 55.4076 4.89428 56.4709 6.00763C57.7004 7.30954 57.8906 8.18618 57.8906 11.1009V18.2785H53.9659V11.2915C53.9659 10.7459 53.9659 10.0357 53.7056 9.44396C53.4693 8.82811 52.9727 8.37876 51.9554 8.37876C50.8681 8.37876 50.3234 8.87626 50.0631 9.46804C49.7788 10.0598 49.7788 10.7238 49.7788 11.103V18.2805H45.854V11.127C45.854 10.772 45.854 10.0839 45.6177 9.49211C45.3574 8.87626 44.8848 8.37876 43.8916 8.37876C42.7803 8.37876 42.2356 8.90033 41.9533 9.54025C41.6689 10.1802 41.6689 10.8903 41.6689 11.2935V18.2805H37.7441V5.133Z" fill="white"/>
<path d="M59.7109 0.75H63.6357V18.2787H59.7109V0.75Z" fill="white"/>
<path d="M69.1436 13.0674C69.3098 14.4656 70.6334 15.3884 72.1693 15.3884C73.4228 15.3884 74.0836 14.8427 74.5582 14.1567H78.577C77.9383 15.6251 77.0171 16.7625 75.9058 17.5208C74.8185 18.3031 73.5169 18.7044 72.1693 18.7044C68.4087 18.7044 65.2168 15.6492 65.2168 11.7394C65.2168 8.06837 68.1023 4.68018 72.0972 4.68018C74.1076 4.68018 75.8337 5.46253 77.0632 6.76444C78.7192 8.54179 79.2158 10.6501 78.9074 13.0654H69.1416L69.1436 13.0674ZM75.0548 10.0824C74.9606 9.46657 74.1557 7.99816 72.1232 7.99816C70.0907 7.99816 69.2857 9.46657 69.1916 10.0824H75.0548Z" fill="white"/>
<path d="M82.1835 8.11615H80.2451V5.13118H82.1835V0.75H86.1082V5.13318H88.0005V8.11816H86.1082V18.2807H82.1835V8.11816V8.11615Z" fill="white"/>
<path d="M19.7636 0.75H15.8389V18.3309H19.7636V0.75Z" fill="white"/>
<path d="M6.71384 0.75H2.78906V18.3309H6.71384V0.75Z" fill="white"/>
<path d="M0 11.5253L11.2558 6.31982L19.764 11.5153V15.4471L11.2558 10.2516L0 15.4571V11.5253Z" fill="white"/>
</svg>
